<mxfile host="app.diagrams.net" modified="2023-12-13T15:04:02.034Z" agent="Mozilla/5.0 (Macintosh; Intel Mac OS X 10_15_7) AppleWebKit/605.1.15 (KHTML, like Gecko) Version/17.1 Safari/605.1.15" etag="iRB71sv0TLP5C1h2Cer3" version="22.1.8" type="device" pages="2">
  <diagram id="QM2p47kPDZQZnexqTIiv" name="Страница 1">
    <mxGraphModel dx="1122" dy="3097" grid="1" gridSize="10" guides="1" tooltips="1" connect="1" arrows="1" fold="1" page="1" pageScale="1" pageWidth="1654" pageHeight="2336" math="0" shadow="0">
      <root>
        <mxCell id="0" />
        <mxCell id="1" parent="0" />
        <mxCell id="TDwtaaCrbJuOcARcRLVL-162" value="Конец" style="html=1;dashed=0;whitespace=wrap;shape=mxgraph.dfd.start" vertex="1" parent="1">
          <mxGeometry x="270" y="970" width="200" height="60" as="geometry" />
        </mxCell>
        <mxCell id="TDwtaaCrbJuOcARcRLVL-163" style="edgeStyle=orthogonalEdgeStyle;rounded=0;orthogonalLoop=1;jettySize=auto;html=1;exitX=1;exitY=0.5;exitDx=0;exitDy=0;endArrow=none;endFill=0;" edge="1" parent="1" source="TDwtaaCrbJuOcARcRLVL-165" target="TDwtaaCrbJuOcARcRLVL-167">
          <mxGeometry relative="1" as="geometry" />
        </mxCell>
        <mxCell id="TDwtaaCrbJuOcARcRLVL-164" style="edgeStyle=orthogonalEdgeStyle;rounded=0;orthogonalLoop=1;jettySize=auto;html=1;exitX=0;exitY=0.5;exitDx=0;exitDy=0;entryX=0.5;entryY=0;entryDx=0;entryDy=0;" edge="1" parent="1" source="TDwtaaCrbJuOcARcRLVL-165" target="TDwtaaCrbJuOcARcRLVL-169">
          <mxGeometry relative="1" as="geometry" />
        </mxCell>
        <mxCell id="TDwtaaCrbJuOcARcRLVL-165" value="cur_dist &amp;gt; max_fuel" style="shape=rhombus;html=1;dashed=0;whitespace=wrap;perimeter=rhombusPerimeter;" vertex="1" parent="1">
          <mxGeometry x="290" y="80" width="200" height="60" as="geometry" />
        </mxCell>
        <mxCell id="TDwtaaCrbJuOcARcRLVL-166" style="edgeStyle=orthogonalEdgeStyle;rounded=0;orthogonalLoop=1;jettySize=auto;html=1;exitX=0.5;exitY=1;exitDx=0;exitDy=0;entryX=0.5;entryY=0;entryDx=0;entryDy=0;endArrow=none;endFill=0;" edge="1" parent="1" source="TDwtaaCrbJuOcARcRLVL-167" target="TDwtaaCrbJuOcARcRLVL-187">
          <mxGeometry relative="1" as="geometry" />
        </mxCell>
        <mxCell id="TDwtaaCrbJuOcARcRLVL-167" value="flag = 1" style="html=1;dashed=0;whitespace=wrap;" vertex="1" parent="1">
          <mxGeometry x="410" y="150" width="200" height="60" as="geometry" />
        </mxCell>
        <mxCell id="TDwtaaCrbJuOcARcRLVL-168" style="edgeStyle=orthogonalEdgeStyle;rounded=0;orthogonalLoop=1;jettySize=auto;html=1;exitX=0.5;exitY=1;exitDx=0;exitDy=0;endArrow=none;endFill=0;" edge="1" parent="1" source="TDwtaaCrbJuOcARcRLVL-169" target="TDwtaaCrbJuOcARcRLVL-171">
          <mxGeometry relative="1" as="geometry">
            <Array as="points">
              <mxPoint x="270" y="310" />
              <mxPoint x="390" y="310" />
            </Array>
          </mxGeometry>
        </mxCell>
        <mxCell id="TDwtaaCrbJuOcARcRLVL-169" value="cur_visit += 1" style="html=1;dashed=0;whitespace=wrap;" vertex="1" parent="1">
          <mxGeometry x="170" y="150" width="200" height="60" as="geometry" />
        </mxCell>
        <mxCell id="TDwtaaCrbJuOcARcRLVL-170" value="Да" style="text;html=1;align=center;verticalAlign=middle;resizable=0;points=[];autosize=1;strokeColor=none;fillColor=none;" vertex="1" parent="1">
          <mxGeometry x="480" y="88" width="40" height="30" as="geometry" />
        </mxCell>
        <mxCell id="TDwtaaCrbJuOcARcRLVL-171" value="B" style="shape=loopLimit;whiteSpace=wrap;html=1;strokeWidth=1;direction=west;" vertex="1" parent="1">
          <mxGeometry x="290.03" y="330" width="200" height="60" as="geometry" />
        </mxCell>
        <mxCell id="TDwtaaCrbJuOcARcRLVL-172" value="" style="edgeStyle=orthogonalEdgeStyle;rounded=0;orthogonalLoop=1;jettySize=auto;html=1;endArrow=none;endFill=0;" edge="1" parent="1" source="TDwtaaCrbJuOcARcRLVL-175" target="TDwtaaCrbJuOcARcRLVL-171">
          <mxGeometry relative="1" as="geometry" />
        </mxCell>
        <mxCell id="TDwtaaCrbJuOcARcRLVL-173" style="edgeStyle=orthogonalEdgeStyle;rounded=0;orthogonalLoop=1;jettySize=auto;html=1;exitX=1;exitY=0.5;exitDx=0;exitDy=0;endArrow=none;endFill=0;" edge="1" parent="1" source="TDwtaaCrbJuOcARcRLVL-175" target="TDwtaaCrbJuOcARcRLVL-177">
          <mxGeometry relative="1" as="geometry" />
        </mxCell>
        <mxCell id="TDwtaaCrbJuOcARcRLVL-174" style="edgeStyle=orthogonalEdgeStyle;rounded=0;orthogonalLoop=1;jettySize=auto;html=1;exitX=0;exitY=0.5;exitDx=0;exitDy=0;entryX=0.5;entryY=0;entryDx=0;entryDy=0;" edge="1" parent="1" source="TDwtaaCrbJuOcARcRLVL-175" target="TDwtaaCrbJuOcARcRLVL-181">
          <mxGeometry relative="1" as="geometry" />
        </mxCell>
        <mxCell id="TDwtaaCrbJuOcARcRLVL-175" value="cur_dist &amp;lt; min_dist&lt;br&gt;and&amp;nbsp;&lt;br&gt;flag = 0" style="shape=rhombus;html=1;dashed=0;whitespace=wrap;perimeter=rhombusPerimeter;" vertex="1" parent="1">
          <mxGeometry x="290.03" y="410" width="200" height="70" as="geometry" />
        </mxCell>
        <mxCell id="TDwtaaCrbJuOcARcRLVL-176" value="" style="edgeStyle=orthogonalEdgeStyle;rounded=0;orthogonalLoop=1;jettySize=auto;html=1;endArrow=none;endFill=0;" edge="1" parent="1" source="TDwtaaCrbJuOcARcRLVL-177" target="TDwtaaCrbJuOcARcRLVL-194">
          <mxGeometry relative="1" as="geometry" />
        </mxCell>
        <mxCell id="TDwtaaCrbJuOcARcRLVL-177" value="min_dist = cur_dist" style="html=1;dashed=0;whitespace=wrap;" vertex="1" parent="1">
          <mxGeometry x="470" y="500" width="200" height="60" as="geometry" />
        </mxCell>
        <mxCell id="TDwtaaCrbJuOcARcRLVL-178" value="Да" style="text;html=1;align=center;verticalAlign=middle;resizable=0;points=[];autosize=1;strokeColor=none;fillColor=none;" vertex="1" parent="1">
          <mxGeometry x="480.03" y="418" width="40" height="30" as="geometry" />
        </mxCell>
        <mxCell id="TDwtaaCrbJuOcARcRLVL-179" style="edgeStyle=orthogonalEdgeStyle;rounded=0;orthogonalLoop=1;jettySize=auto;html=1;exitX=1;exitY=0.5;exitDx=0;exitDy=0;entryX=0.5;entryY=0;entryDx=0;entryDy=0;endArrow=none;endFill=0;" edge="1" parent="1" source="TDwtaaCrbJuOcARcRLVL-181" target="TDwtaaCrbJuOcARcRLVL-183">
          <mxGeometry relative="1" as="geometry" />
        </mxCell>
        <mxCell id="TDwtaaCrbJuOcARcRLVL-180" style="edgeStyle=orthogonalEdgeStyle;rounded=0;orthogonalLoop=1;jettySize=auto;html=1;exitX=0;exitY=0.5;exitDx=0;exitDy=0;endArrow=classic;endFill=1;" edge="1" parent="1" source="TDwtaaCrbJuOcARcRLVL-181" target="TDwtaaCrbJuOcARcRLVL-184">
          <mxGeometry relative="1" as="geometry">
            <Array as="points">
              <mxPoint x="40" y="531" />
              <mxPoint x="40" y="830" />
              <mxPoint x="200" y="830" />
              <mxPoint x="200" y="860" />
              <mxPoint x="370" y="860" />
            </Array>
          </mxGeometry>
        </mxCell>
        <mxCell id="TDwtaaCrbJuOcARcRLVL-181" value="&lt;font style=&quot;font-size: 11px;&quot;&gt;max_visit_cites &amp;lt; cur_visit&lt;br&gt;cur_dist &amp;lt; min_dist&lt;/font&gt;" style="shape=rhombus;html=1;dashed=0;whitespace=wrap;perimeter=rhombusPerimeter;" vertex="1" parent="1">
          <mxGeometry x="60.02999999999997" y="500" width="209.97" height="62" as="geometry" />
        </mxCell>
        <mxCell id="TDwtaaCrbJuOcARcRLVL-182" style="edgeStyle=orthogonalEdgeStyle;rounded=0;orthogonalLoop=1;jettySize=auto;html=1;exitX=0.5;exitY=1;exitDx=0;exitDy=0;entryX=0.5;entryY=0;entryDx=0;entryDy=0;endArrow=none;endFill=0;" edge="1" parent="1" source="TDwtaaCrbJuOcARcRLVL-183" target="TDwtaaCrbJuOcARcRLVL-189">
          <mxGeometry relative="1" as="geometry" />
        </mxCell>
        <mxCell id="TDwtaaCrbJuOcARcRLVL-183" value="min_dist = cur_dist" style="html=1;dashed=0;whitespace=wrap;fontSize=11;" vertex="1" parent="1">
          <mxGeometry x="200.02999999999997" y="580" width="200" height="60" as="geometry" />
        </mxCell>
        <mxCell id="TDwtaaCrbJuOcARcRLVL-184" value="A" style="shape=loopLimit;whiteSpace=wrap;html=1;strokeWidth=1;direction=west;" vertex="1" parent="1">
          <mxGeometry x="270" y="890" width="200" height="60" as="geometry" />
        </mxCell>
        <mxCell id="TDwtaaCrbJuOcARcRLVL-185" style="edgeStyle=orthogonalEdgeStyle;rounded=0;orthogonalLoop=1;jettySize=auto;html=1;exitX=0.5;exitY=0;exitDx=0;exitDy=0;entryX=0.5;entryY=0.5;entryDx=0;entryDy=-30;entryPerimeter=0;endArrow=none;endFill=0;" edge="1" parent="1" source="TDwtaaCrbJuOcARcRLVL-184" target="TDwtaaCrbJuOcARcRLVL-162">
          <mxGeometry relative="1" as="geometry" />
        </mxCell>
        <mxCell id="TDwtaaCrbJuOcARcRLVL-186" style="edgeStyle=orthogonalEdgeStyle;rounded=0;orthogonalLoop=1;jettySize=auto;html=1;exitX=0.5;exitY=1;exitDx=0;exitDy=0;entryX=0.5;entryY=1;entryDx=0;entryDy=0;endArrow=none;endFill=0;" edge="1" parent="1" source="TDwtaaCrbJuOcARcRLVL-187" target="TDwtaaCrbJuOcARcRLVL-171">
          <mxGeometry relative="1" as="geometry">
            <Array as="points">
              <mxPoint x="510" y="310" />
              <mxPoint x="390" y="310" />
            </Array>
          </mxGeometry>
        </mxCell>
        <mxCell id="TDwtaaCrbJuOcARcRLVL-187" value="cur_dist -= &lt;br&gt;matrix[start_city][end_city]" style="html=1;dashed=0;whitespace=wrap;" vertex="1" parent="1">
          <mxGeometry x="410" y="230" width="200" height="60" as="geometry" />
        </mxCell>
        <mxCell id="TDwtaaCrbJuOcARcRLVL-188" style="edgeStyle=orthogonalEdgeStyle;rounded=0;orthogonalLoop=1;jettySize=auto;html=1;exitX=0.5;exitY=1;exitDx=0;exitDy=0;entryX=0.5;entryY=0;entryDx=0;entryDy=0;endArrow=none;endFill=0;" edge="1" parent="1" source="TDwtaaCrbJuOcARcRLVL-189" target="TDwtaaCrbJuOcARcRLVL-191">
          <mxGeometry relative="1" as="geometry" />
        </mxCell>
        <mxCell id="TDwtaaCrbJuOcARcRLVL-189" value="&lt;br style=&quot;font-size: 11px;&quot;&gt;best_way = places_combs[I][:cur_vivist]&lt;br style=&quot;font-size: 11px;&quot;&gt;" style="html=1;dashed=0;whitespace=wrap;fontSize=11;" vertex="1" parent="1">
          <mxGeometry x="200.02999999999997" y="660" width="200" height="60" as="geometry" />
        </mxCell>
        <mxCell id="TDwtaaCrbJuOcARcRLVL-190" style="edgeStyle=orthogonalEdgeStyle;rounded=0;orthogonalLoop=1;jettySize=auto;html=1;exitX=0.5;exitY=1;exitDx=0;exitDy=0;endArrow=none;endFill=0;" edge="1" parent="1" source="TDwtaaCrbJuOcARcRLVL-191">
          <mxGeometry relative="1" as="geometry">
            <mxPoint x="200" y="850" as="targetPoint" />
            <Array as="points">
              <mxPoint x="300" y="830" />
              <mxPoint x="200" y="830" />
              <mxPoint x="200" y="850" />
            </Array>
          </mxGeometry>
        </mxCell>
        <mxCell id="TDwtaaCrbJuOcARcRLVL-191" value="&amp;nbsp;max_visit_cites = cur_visit" style="html=1;dashed=0;whitespace=wrap;fontSize=11;" vertex="1" parent="1">
          <mxGeometry x="200.02999999999997" y="740" width="200" height="60" as="geometry" />
        </mxCell>
        <mxCell id="TDwtaaCrbJuOcARcRLVL-192" value="best_way = places_combs[I]" style="html=1;dashed=0;whitespace=wrap;" vertex="1" parent="1">
          <mxGeometry x="470" y="580" width="200" height="60" as="geometry" />
        </mxCell>
        <mxCell id="TDwtaaCrbJuOcARcRLVL-193" style="edgeStyle=orthogonalEdgeStyle;rounded=0;orthogonalLoop=1;jettySize=auto;html=1;exitX=0.5;exitY=1;exitDx=0;exitDy=0;entryX=0.5;entryY=1;entryDx=0;entryDy=0;" edge="1" parent="1" source="TDwtaaCrbJuOcARcRLVL-194" target="TDwtaaCrbJuOcARcRLVL-184">
          <mxGeometry relative="1" as="geometry">
            <Array as="points">
              <mxPoint x="570" y="860" />
              <mxPoint x="370" y="860" />
            </Array>
          </mxGeometry>
        </mxCell>
        <mxCell id="TDwtaaCrbJuOcARcRLVL-194" value="&amp;nbsp;max_visit_cites = cur_visit" style="html=1;dashed=0;whitespace=wrap;" vertex="1" parent="1">
          <mxGeometry x="470" y="660" width="200" height="60" as="geometry" />
        </mxCell>
        <mxCell id="TDwtaaCrbJuOcARcRLVL-196" style="edgeStyle=orthogonalEdgeStyle;rounded=0;orthogonalLoop=1;jettySize=auto;html=1;exitX=0.5;exitY=1;exitDx=0;exitDy=0;entryX=0.5;entryY=0;entryDx=0;entryDy=0;endArrow=none;endFill=0;" edge="1" parent="1" source="TDwtaaCrbJuOcARcRLVL-195" target="TDwtaaCrbJuOcARcRLVL-165">
          <mxGeometry relative="1" as="geometry" />
        </mxCell>
        <mxCell id="TDwtaaCrbJuOcARcRLVL-195" value="A" style="ellipse;whiteSpace=wrap;html=1;aspect=fixed;" vertex="1" parent="1">
          <mxGeometry x="350.03" y="-20" width="80" height="80" as="geometry" />
        </mxCell>
      </root>
    </mxGraphModel>
  </diagram>
  <diagram id="rO09Thqu_1HLDPjMh7Hp" name="Страница — 2">
    <mxGraphModel dx="954" dy="647" grid="1" gridSize="10" guides="1" tooltips="1" connect="1" arrows="1" fold="1" page="1" pageScale="1" pageWidth="827" pageHeight="1169" math="0" shadow="0">
      <root>
        <mxCell id="0" />
        <mxCell id="1" parent="0" />
        <mxCell id="XYT2gw2WZLIz1O7rS6PQ-7" value="Конец" style="html=1;dashed=0;whitespace=wrap;shape=mxgraph.dfd.start" vertex="1" parent="1">
          <mxGeometry x="640" y="950" width="200" height="60" as="geometry" />
        </mxCell>
        <mxCell id="XYT2gw2WZLIz1O7rS6PQ-18" style="edgeStyle=orthogonalEdgeStyle;rounded=0;orthogonalLoop=1;jettySize=auto;html=1;exitX=1;exitY=0.5;exitDx=0;exitDy=0;endArrow=none;endFill=0;" edge="1" parent="1" source="XYT2gw2WZLIz1O7rS6PQ-20" target="XYT2gw2WZLIz1O7rS6PQ-22">
          <mxGeometry relative="1" as="geometry" />
        </mxCell>
        <mxCell id="XYT2gw2WZLIz1O7rS6PQ-19" style="edgeStyle=orthogonalEdgeStyle;rounded=0;orthogonalLoop=1;jettySize=auto;html=1;exitX=0;exitY=0.5;exitDx=0;exitDy=0;entryX=0.5;entryY=0;entryDx=0;entryDy=0;" edge="1" parent="1" source="XYT2gw2WZLIz1O7rS6PQ-20" target="XYT2gw2WZLIz1O7rS6PQ-24">
          <mxGeometry relative="1" as="geometry" />
        </mxCell>
        <mxCell id="XYT2gw2WZLIz1O7rS6PQ-20" value="cur_dist &amp;gt; max_fuel" style="shape=rhombus;html=1;dashed=0;whitespace=wrap;perimeter=rhombusPerimeter;" vertex="1" parent="1">
          <mxGeometry x="660" y="60" width="200" height="60" as="geometry" />
        </mxCell>
        <mxCell id="XYT2gw2WZLIz1O7rS6PQ-21" style="edgeStyle=orthogonalEdgeStyle;rounded=0;orthogonalLoop=1;jettySize=auto;html=1;exitX=0.5;exitY=1;exitDx=0;exitDy=0;entryX=0.5;entryY=0;entryDx=0;entryDy=0;endArrow=none;endFill=0;" edge="1" parent="1" source="XYT2gw2WZLIz1O7rS6PQ-22" target="XYT2gw2WZLIz1O7rS6PQ-49">
          <mxGeometry relative="1" as="geometry" />
        </mxCell>
        <mxCell id="XYT2gw2WZLIz1O7rS6PQ-22" value="flag = 1" style="html=1;dashed=0;whitespace=wrap;" vertex="1" parent="1">
          <mxGeometry x="780" y="130" width="200" height="60" as="geometry" />
        </mxCell>
        <mxCell id="XYT2gw2WZLIz1O7rS6PQ-23" style="edgeStyle=orthogonalEdgeStyle;rounded=0;orthogonalLoop=1;jettySize=auto;html=1;exitX=0.5;exitY=1;exitDx=0;exitDy=0;endArrow=none;endFill=0;" edge="1" parent="1" source="XYT2gw2WZLIz1O7rS6PQ-24" target="XYT2gw2WZLIz1O7rS6PQ-26">
          <mxGeometry relative="1" as="geometry">
            <Array as="points">
              <mxPoint x="640" y="290" />
              <mxPoint x="760" y="290" />
            </Array>
          </mxGeometry>
        </mxCell>
        <mxCell id="XYT2gw2WZLIz1O7rS6PQ-24" value="cur_visit += 1" style="html=1;dashed=0;whitespace=wrap;" vertex="1" parent="1">
          <mxGeometry x="540" y="130" width="200" height="60" as="geometry" />
        </mxCell>
        <mxCell id="XYT2gw2WZLIz1O7rS6PQ-25" value="Да" style="text;html=1;align=center;verticalAlign=middle;resizable=0;points=[];autosize=1;strokeColor=none;fillColor=none;" vertex="1" parent="1">
          <mxGeometry x="850" y="68" width="40" height="30" as="geometry" />
        </mxCell>
        <mxCell id="XYT2gw2WZLIz1O7rS6PQ-26" value="B&lt;br&gt;Конец по j" style="shape=loopLimit;whiteSpace=wrap;html=1;strokeWidth=1;direction=west;" vertex="1" parent="1">
          <mxGeometry x="660.03" y="310" width="200" height="60" as="geometry" />
        </mxCell>
        <mxCell id="XYT2gw2WZLIz1O7rS6PQ-27" value="" style="edgeStyle=orthogonalEdgeStyle;rounded=0;orthogonalLoop=1;jettySize=auto;html=1;endArrow=none;endFill=0;" edge="1" parent="1" source="XYT2gw2WZLIz1O7rS6PQ-30" target="XYT2gw2WZLIz1O7rS6PQ-26">
          <mxGeometry relative="1" as="geometry" />
        </mxCell>
        <mxCell id="XYT2gw2WZLIz1O7rS6PQ-28" style="edgeStyle=orthogonalEdgeStyle;rounded=0;orthogonalLoop=1;jettySize=auto;html=1;exitX=1;exitY=0.5;exitDx=0;exitDy=0;endArrow=none;endFill=0;" edge="1" parent="1" source="XYT2gw2WZLIz1O7rS6PQ-30" target="XYT2gw2WZLIz1O7rS6PQ-32">
          <mxGeometry relative="1" as="geometry" />
        </mxCell>
        <mxCell id="XYT2gw2WZLIz1O7rS6PQ-29" style="edgeStyle=orthogonalEdgeStyle;rounded=0;orthogonalLoop=1;jettySize=auto;html=1;exitX=0;exitY=0.5;exitDx=0;exitDy=0;entryX=0.5;entryY=0;entryDx=0;entryDy=0;" edge="1" parent="1" source="XYT2gw2WZLIz1O7rS6PQ-30" target="XYT2gw2WZLIz1O7rS6PQ-36">
          <mxGeometry relative="1" as="geometry" />
        </mxCell>
        <mxCell id="XYT2gw2WZLIz1O7rS6PQ-30" value="cur_dist &amp;lt; min_dist&lt;br&gt;and&amp;nbsp;&lt;br&gt;flag = 0" style="shape=rhombus;html=1;dashed=0;whitespace=wrap;perimeter=rhombusPerimeter;" vertex="1" parent="1">
          <mxGeometry x="660.03" y="390" width="200" height="70" as="geometry" />
        </mxCell>
        <mxCell id="XYT2gw2WZLIz1O7rS6PQ-31" value="" style="edgeStyle=orthogonalEdgeStyle;rounded=0;orthogonalLoop=1;jettySize=auto;html=1;endArrow=none;endFill=0;" edge="1" parent="1" source="XYT2gw2WZLIz1O7rS6PQ-32" target="XYT2gw2WZLIz1O7rS6PQ-56">
          <mxGeometry relative="1" as="geometry" />
        </mxCell>
        <mxCell id="XYT2gw2WZLIz1O7rS6PQ-32" value="min_dist = cur_dist" style="html=1;dashed=0;whitespace=wrap;" vertex="1" parent="1">
          <mxGeometry x="840" y="480" width="200" height="60" as="geometry" />
        </mxCell>
        <mxCell id="XYT2gw2WZLIz1O7rS6PQ-33" value="Да" style="text;html=1;align=center;verticalAlign=middle;resizable=0;points=[];autosize=1;strokeColor=none;fillColor=none;" vertex="1" parent="1">
          <mxGeometry x="850.03" y="398" width="40" height="30" as="geometry" />
        </mxCell>
        <mxCell id="XYT2gw2WZLIz1O7rS6PQ-34" style="edgeStyle=orthogonalEdgeStyle;rounded=0;orthogonalLoop=1;jettySize=auto;html=1;exitX=1;exitY=0.5;exitDx=0;exitDy=0;entryX=0.5;entryY=0;entryDx=0;entryDy=0;endArrow=none;endFill=0;" edge="1" parent="1" source="XYT2gw2WZLIz1O7rS6PQ-36" target="XYT2gw2WZLIz1O7rS6PQ-38">
          <mxGeometry relative="1" as="geometry" />
        </mxCell>
        <mxCell id="XYT2gw2WZLIz1O7rS6PQ-35" style="edgeStyle=orthogonalEdgeStyle;rounded=0;orthogonalLoop=1;jettySize=auto;html=1;exitX=0;exitY=0.5;exitDx=0;exitDy=0;endArrow=classic;endFill=1;" edge="1" parent="1" source="XYT2gw2WZLIz1O7rS6PQ-36" target="XYT2gw2WZLIz1O7rS6PQ-39">
          <mxGeometry relative="1" as="geometry">
            <Array as="points">
              <mxPoint x="410" y="511" />
              <mxPoint x="410" y="810" />
              <mxPoint x="570" y="810" />
              <mxPoint x="570" y="840" />
              <mxPoint x="740" y="840" />
            </Array>
          </mxGeometry>
        </mxCell>
        <mxCell id="XYT2gw2WZLIz1O7rS6PQ-36" value="&lt;font style=&quot;font-size: 11px;&quot;&gt;max_visit_cites &amp;lt; cur_visit&lt;br&gt;cur_dist &amp;lt; min_dist&lt;/font&gt;" style="shape=rhombus;html=1;dashed=0;whitespace=wrap;perimeter=rhombusPerimeter;" vertex="1" parent="1">
          <mxGeometry x="430.03" y="480" width="209.97" height="62" as="geometry" />
        </mxCell>
        <mxCell id="XYT2gw2WZLIz1O7rS6PQ-37" style="edgeStyle=orthogonalEdgeStyle;rounded=0;orthogonalLoop=1;jettySize=auto;html=1;exitX=0.5;exitY=1;exitDx=0;exitDy=0;entryX=0.5;entryY=0;entryDx=0;entryDy=0;endArrow=none;endFill=0;" edge="1" parent="1" source="XYT2gw2WZLIz1O7rS6PQ-38" target="XYT2gw2WZLIz1O7rS6PQ-51">
          <mxGeometry relative="1" as="geometry" />
        </mxCell>
        <mxCell id="XYT2gw2WZLIz1O7rS6PQ-38" value="min_dist = cur_dist" style="html=1;dashed=0;whitespace=wrap;fontSize=11;" vertex="1" parent="1">
          <mxGeometry x="570.03" y="560" width="200" height="60" as="geometry" />
        </mxCell>
        <mxCell id="XYT2gw2WZLIz1O7rS6PQ-39" value="i += 1" style="shape=loopLimit;whiteSpace=wrap;html=1;strokeWidth=1;direction=west;" vertex="1" parent="1">
          <mxGeometry x="640" y="870" width="200" height="60" as="geometry" />
        </mxCell>
        <mxCell id="XYT2gw2WZLIz1O7rS6PQ-40" style="edgeStyle=orthogonalEdgeStyle;rounded=0;orthogonalLoop=1;jettySize=auto;html=1;exitX=0.5;exitY=0;exitDx=0;exitDy=0;entryX=0.5;entryY=0.5;entryDx=0;entryDy=-30;entryPerimeter=0;endArrow=none;endFill=0;" edge="1" parent="1" source="XYT2gw2WZLIz1O7rS6PQ-39" target="XYT2gw2WZLIz1O7rS6PQ-7">
          <mxGeometry relative="1" as="geometry" />
        </mxCell>
        <mxCell id="XYT2gw2WZLIz1O7rS6PQ-48" style="edgeStyle=orthogonalEdgeStyle;rounded=0;orthogonalLoop=1;jettySize=auto;html=1;exitX=0.5;exitY=1;exitDx=0;exitDy=0;entryX=0.5;entryY=1;entryDx=0;entryDy=0;endArrow=none;endFill=0;" edge="1" parent="1" source="XYT2gw2WZLIz1O7rS6PQ-49" target="XYT2gw2WZLIz1O7rS6PQ-26">
          <mxGeometry relative="1" as="geometry">
            <Array as="points">
              <mxPoint x="880" y="290" />
              <mxPoint x="760" y="290" />
            </Array>
          </mxGeometry>
        </mxCell>
        <mxCell id="XYT2gw2WZLIz1O7rS6PQ-49" value="cur_dist -= &lt;br&gt;matrix[start_city][end_city]" style="html=1;dashed=0;whitespace=wrap;" vertex="1" parent="1">
          <mxGeometry x="780" y="210" width="200" height="60" as="geometry" />
        </mxCell>
        <mxCell id="XYT2gw2WZLIz1O7rS6PQ-50" style="edgeStyle=orthogonalEdgeStyle;rounded=0;orthogonalLoop=1;jettySize=auto;html=1;exitX=0.5;exitY=1;exitDx=0;exitDy=0;entryX=0.5;entryY=0;entryDx=0;entryDy=0;endArrow=none;endFill=0;" edge="1" parent="1" source="XYT2gw2WZLIz1O7rS6PQ-51" target="XYT2gw2WZLIz1O7rS6PQ-53">
          <mxGeometry relative="1" as="geometry" />
        </mxCell>
        <mxCell id="XYT2gw2WZLIz1O7rS6PQ-51" value="&lt;br style=&quot;font-size: 11px;&quot;&gt;best_way = places_combs[I][:cur_vivist]&lt;br style=&quot;font-size: 11px;&quot;&gt;" style="html=1;dashed=0;whitespace=wrap;fontSize=11;" vertex="1" parent="1">
          <mxGeometry x="570.03" y="640" width="200" height="60" as="geometry" />
        </mxCell>
        <mxCell id="XYT2gw2WZLIz1O7rS6PQ-52" style="edgeStyle=orthogonalEdgeStyle;rounded=0;orthogonalLoop=1;jettySize=auto;html=1;exitX=0.5;exitY=1;exitDx=0;exitDy=0;endArrow=none;endFill=0;" edge="1" parent="1" source="XYT2gw2WZLIz1O7rS6PQ-53">
          <mxGeometry relative="1" as="geometry">
            <mxPoint x="570" y="830" as="targetPoint" />
            <Array as="points">
              <mxPoint x="670" y="810" />
              <mxPoint x="570" y="810" />
              <mxPoint x="570" y="830" />
            </Array>
          </mxGeometry>
        </mxCell>
        <mxCell id="XYT2gw2WZLIz1O7rS6PQ-53" value="&amp;nbsp;max_visit_cites = cur_visit" style="html=1;dashed=0;whitespace=wrap;fontSize=11;" vertex="1" parent="1">
          <mxGeometry x="570.03" y="720" width="200" height="60" as="geometry" />
        </mxCell>
        <mxCell id="XYT2gw2WZLIz1O7rS6PQ-54" value="&lt;br&gt;best_way = places_combs[I]&lt;br&gt;" style="html=1;dashed=0;whitespace=wrap;" vertex="1" parent="1">
          <mxGeometry x="840" y="560" width="200" height="60" as="geometry" />
        </mxCell>
        <mxCell id="XYT2gw2WZLIz1O7rS6PQ-55" style="edgeStyle=orthogonalEdgeStyle;rounded=0;orthogonalLoop=1;jettySize=auto;html=1;exitX=0.5;exitY=1;exitDx=0;exitDy=0;entryX=0.5;entryY=1;entryDx=0;entryDy=0;" edge="1" parent="1" source="XYT2gw2WZLIz1O7rS6PQ-56" target="XYT2gw2WZLIz1O7rS6PQ-39">
          <mxGeometry relative="1" as="geometry">
            <Array as="points">
              <mxPoint x="940" y="840" />
              <mxPoint x="740" y="840" />
            </Array>
          </mxGeometry>
        </mxCell>
        <mxCell id="XYT2gw2WZLIz1O7rS6PQ-56" value="&amp;nbsp;max_visit_cites = cur_visit" style="html=1;dashed=0;whitespace=wrap;" vertex="1" parent="1">
          <mxGeometry x="840" y="640" width="200" height="60" as="geometry" />
        </mxCell>
        <mxCell id="5wb8F7cbIkGaN5cbXdrz-1" style="edgeStyle=none;html=1;exitX=0.5;exitY=0.5;exitDx=0;exitDy=30;exitPerimeter=0;entryX=0.5;entryY=0;entryDx=0;entryDy=0;endArrow=none;endFill=0;" edge="1" parent="1" source="5wb8F7cbIkGaN5cbXdrz-2" target="5wb8F7cbIkGaN5cbXdrz-7">
          <mxGeometry relative="1" as="geometry" />
        </mxCell>
        <mxCell id="5wb8F7cbIkGaN5cbXdrz-2" value="Начало" style="html=1;dashed=0;whitespace=wrap;shape=mxgraph.dfd.start" vertex="1" parent="1">
          <mxGeometry x="60" y="30" width="200" height="60" as="geometry" />
        </mxCell>
        <mxCell id="5wb8F7cbIkGaN5cbXdrz-3" style="edgeStyle=none;html=1;exitX=0.5;exitY=1;exitDx=0;exitDy=0;entryX=0.5;entryY=0;entryDx=0;entryDy=0;endArrow=none;endFill=0;" edge="1" parent="1" source="5wb8F7cbIkGaN5cbXdrz-5">
          <mxGeometry relative="1" as="geometry">
            <mxPoint x="160" y="510" as="targetPoint" />
          </mxGeometry>
        </mxCell>
        <mxCell id="5wb8F7cbIkGaN5cbXdrz-4" value="" style="edgeStyle=orthogonalEdgeStyle;rounded=0;orthogonalLoop=1;jettySize=auto;html=1;endArrow=none;endFill=0;" edge="1" parent="1" source="5wb8F7cbIkGaN5cbXdrz-5" target="5wb8F7cbIkGaN5cbXdrz-26">
          <mxGeometry relative="1" as="geometry" />
        </mxCell>
        <mxCell id="5wb8F7cbIkGaN5cbXdrz-5" value="A&lt;br&gt;i &amp;lt; len(places_combs)" style="shape=loopLimit;whiteSpace=wrap;html=1;direction=east" vertex="1" parent="1">
          <mxGeometry x="60" y="430" width="200" height="60" as="geometry" />
        </mxCell>
        <mxCell id="5wb8F7cbIkGaN5cbXdrz-6" style="edgeStyle=none;html=1;exitX=0.5;exitY=1;exitDx=0;exitDy=0;entryX=0.5;entryY=0;entryDx=0;entryDy=0;endArrow=none;endFill=0;" edge="1" parent="1" source="5wb8F7cbIkGaN5cbXdrz-7" target="5wb8F7cbIkGaN5cbXdrz-9">
          <mxGeometry relative="1" as="geometry" />
        </mxCell>
        <mxCell id="5wb8F7cbIkGaN5cbXdrz-7" value="places = массив городов по size" style="html=1;dashed=0;whitespace=wrap;" vertex="1" parent="1">
          <mxGeometry x="60" y="110" width="200" height="60" as="geometry" />
        </mxCell>
        <mxCell id="5wb8F7cbIkGaN5cbXdrz-8" style="edgeStyle=none;html=1;exitX=0.5;exitY=1;exitDx=0;exitDy=0;entryX=0.5;entryY=0;entryDx=0;entryDy=0;endArrow=none;endFill=0;" edge="1" parent="1" source="5wb8F7cbIkGaN5cbXdrz-9" target="5wb8F7cbIkGaN5cbXdrz-10">
          <mxGeometry relative="1" as="geometry" />
        </mxCell>
        <mxCell id="5wb8F7cbIkGaN5cbXdrz-9" value="places_combs = массив&lt;br&gt;комбинаций городов places" style="shape=process;whiteSpace=wrap;html=1;backgroundOutline=1;" vertex="1" parent="1">
          <mxGeometry x="60" y="190" width="200" height="60" as="geometry" />
        </mxCell>
        <mxCell id="5wb8F7cbIkGaN5cbXdrz-10" value="min_dist = inf" style="html=1;dashed=0;whitespace=wrap;" vertex="1" parent="1">
          <mxGeometry x="60" y="270" width="200" height="60" as="geometry" />
        </mxCell>
        <mxCell id="5wb8F7cbIkGaN5cbXdrz-11" value="flag = 0" style="html=1;dashed=0;whitespace=wrap;" vertex="1" parent="1">
          <mxGeometry x="60" y="510" width="200" height="60" as="geometry" />
        </mxCell>
        <mxCell id="5wb8F7cbIkGaN5cbXdrz-12" style="edgeStyle=orthogonalEdgeStyle;rounded=0;orthogonalLoop=1;jettySize=auto;html=1;exitX=0.5;exitY=1;exitDx=0;exitDy=0;entryX=0.5;entryY=0;entryDx=0;entryDy=0;endArrow=none;endFill=0;" edge="1" parent="1" source="5wb8F7cbIkGaN5cbXdrz-13" target="5wb8F7cbIkGaN5cbXdrz-15">
          <mxGeometry relative="1" as="geometry" />
        </mxCell>
        <mxCell id="5wb8F7cbIkGaN5cbXdrz-13" value="B&lt;br&gt;j &amp;lt; size - 1" style="shape=loopLimit;whiteSpace=wrap;html=1;direction=east" vertex="1" parent="1">
          <mxGeometry x="60" y="750" width="200" height="60" as="geometry" />
        </mxCell>
        <mxCell id="5wb8F7cbIkGaN5cbXdrz-14" value="" style="edgeStyle=orthogonalEdgeStyle;rounded=0;orthogonalLoop=1;jettySize=auto;html=1;endArrow=none;endFill=0;" edge="1" parent="1" source="5wb8F7cbIkGaN5cbXdrz-15" target="5wb8F7cbIkGaN5cbXdrz-24">
          <mxGeometry relative="1" as="geometry" />
        </mxCell>
        <mxCell id="5wb8F7cbIkGaN5cbXdrz-15" value="start_city = places_combs[I][j]" style="html=1;dashed=0;whitespace=wrap;" vertex="1" parent="1">
          <mxGeometry x="60" y="830" width="200" height="60" as="geometry" />
        </mxCell>
        <mxCell id="5wb8F7cbIkGaN5cbXdrz-16" style="edgeStyle=orthogonalEdgeStyle;rounded=0;orthogonalLoop=1;jettySize=auto;html=1;exitX=0.5;exitY=1;exitDx=0;exitDy=0;entryX=0.5;entryY=0;entryDx=0;entryDy=0;endArrow=none;endFill=0;" edge="1" parent="1" source="5wb8F7cbIkGaN5cbXdrz-17" target="5wb8F7cbIkGaN5cbXdrz-25">
          <mxGeometry relative="1" as="geometry" />
        </mxCell>
        <mxCell id="5wb8F7cbIkGaN5cbXdrz-17" value="cur_dist += &lt;br&gt;matrix[start_city][end_city]" style="html=1;dashed=0;whitespace=wrap;" vertex="1" parent="1">
          <mxGeometry x="60" y="990" width="200" height="60" as="geometry" />
        </mxCell>
        <mxCell id="5wb8F7cbIkGaN5cbXdrz-18" value="" style="edgeStyle=orthogonalEdgeStyle;rounded=0;orthogonalLoop=1;jettySize=auto;html=1;endArrow=none;endFill=0;" edge="1" parent="1" source="5wb8F7cbIkGaN5cbXdrz-20" target="5wb8F7cbIkGaN5cbXdrz-11">
          <mxGeometry relative="1" as="geometry" />
        </mxCell>
        <mxCell id="5wb8F7cbIkGaN5cbXdrz-19" value="" style="edgeStyle=orthogonalEdgeStyle;rounded=0;orthogonalLoop=1;jettySize=auto;html=1;endArrow=none;endFill=0;" edge="1" parent="1" source="5wb8F7cbIkGaN5cbXdrz-20" target="5wb8F7cbIkGaN5cbXdrz-22">
          <mxGeometry relative="1" as="geometry" />
        </mxCell>
        <mxCell id="5wb8F7cbIkGaN5cbXdrz-20" value="&lt;br style=&quot;border-color: var(--border-color);&quot;&gt;&lt;span style=&quot;border-color: var(--border-color);&quot;&gt;cur_dist = 0&lt;/span&gt;" style="html=1;dashed=0;whitespace=wrap;" vertex="1" parent="1">
          <mxGeometry x="60" y="590" width="200" height="60" as="geometry" />
        </mxCell>
        <mxCell id="5wb8F7cbIkGaN5cbXdrz-21" style="edgeStyle=orthogonalEdgeStyle;rounded=0;orthogonalLoop=1;jettySize=auto;html=1;exitX=0.5;exitY=1;exitDx=0;exitDy=0;entryX=0.5;entryY=0;entryDx=0;entryDy=0;endArrow=none;endFill=0;" edge="1" parent="1" source="5wb8F7cbIkGaN5cbXdrz-22" target="5wb8F7cbIkGaN5cbXdrz-13">
          <mxGeometry relative="1" as="geometry" />
        </mxCell>
        <mxCell id="5wb8F7cbIkGaN5cbXdrz-22" value="cur_visit = 0" style="html=1;dashed=0;whitespace=wrap;" vertex="1" parent="1">
          <mxGeometry x="60" y="670" width="200" height="60" as="geometry" />
        </mxCell>
        <mxCell id="5wb8F7cbIkGaN5cbXdrz-23" value="" style="edgeStyle=orthogonalEdgeStyle;rounded=0;orthogonalLoop=1;jettySize=auto;html=1;endArrow=none;endFill=0;" edge="1" parent="1" source="5wb8F7cbIkGaN5cbXdrz-24" target="5wb8F7cbIkGaN5cbXdrz-17">
          <mxGeometry relative="1" as="geometry" />
        </mxCell>
        <mxCell id="5wb8F7cbIkGaN5cbXdrz-24" value="end_city = places_combs[I][j + 1]" style="html=1;dashed=0;whitespace=wrap;" vertex="1" parent="1">
          <mxGeometry x="60" y="910" width="200" height="60" as="geometry" />
        </mxCell>
        <mxCell id="5wb8F7cbIkGaN5cbXdrz-25" value="A" style="ellipse;whiteSpace=wrap;html=1;aspect=fixed;" vertex="1" parent="1">
          <mxGeometry x="120" y="1070" width="80" height="80" as="geometry" />
        </mxCell>
        <mxCell id="5wb8F7cbIkGaN5cbXdrz-26" value="max_visit_cites = 0" style="html=1;dashed=0;whitespace=wrap;" vertex="1" parent="1">
          <mxGeometry x="60" y="350" width="200" height="60" as="geometry" />
        </mxCell>
      </root>
    </mxGraphModel>
  </diagram>
</mxfile>
